<svg aria-hidden="true" style="position:absolute;width:0;height:0;overflow:hidden" xmlns="http://www.w3.org/2000/svg">
    <defs>
        <symbol id="icon-logo" viewBox="0 0 80 63" fill="none" xmlns="http://www.w3.org/2000/svg">
            <mask id="path-1-inside-1_2054_85" fill="#fff">
                <path d="M31.484 62.348H66.13c2.382 0 4.331-1.674 4.331-3.719V32.6h7.363c1.992 0 2.945-2.12 1.429-3.236L43.047 1.36c-1.645-1.264-4.157-1.264-5.803 0L1.037 29.363c-1.472 1.116-.563 3.235 1.43 3.235h7.362V58.63c0 2.045 1.949 3.719 4.331 3.719h17.323Z"/>
            </mask>
            <path d="M31.484 62.348H66.13c2.382 0 4.331-1.674 4.331-3.719V32.6h7.363c1.992 0 2.945-2.12 1.429-3.236L43.047 1.36c-1.645-1.264-4.157-1.264-5.803 0L1.037 29.363c-1.472 1.116-.563 3.235 1.43 3.235h7.362V58.63c0 2.045 1.949 3.719 4.331 3.719h17.323Z" fill="#fff"/>
            <path d="M70.462 32.598v-5.457h-5.457v5.457h5.457Zm8.792-3.235-3.339 4.316.052.04.052.039 3.235-4.395ZM43.047 1.36l3.339-4.317-.007-.005-.007-.005-3.325 4.327Zm-5.803 0-3.325-4.327-.007.005-.007.005 3.339 4.317ZM1.037 29.363l3.296 4.35.021-.017.022-.017-3.339-4.316Zm8.792 3.235h5.457v-5.457H9.829v5.457Zm21.655 35.207h17.323V56.89H31.484v10.914ZM48.807 56.89H46.96v10.914h6.178V56.89H46.96v10.914h1.849V56.89Zm4.331 10.914h12.993V56.89H53.138v10.914Zm12.993 0c4.586 0 9.788-3.366 9.788-9.176H65.005c0-.792.388-1.306.63-1.514.233-.2.422-.224.496-.224v10.914Zm9.788-9.176V32.6H65.005v26.03H75.92Zm-5.457-20.574h7.363V27.141h-7.363v10.914Zm7.363 0c2.998 0 5.78-1.663 7.016-4.438 1.324-2.979.499-6.55-2.353-8.649l-6.469 8.79a3.696 3.696 0 0 1-1.35-2.042 3.856 3.856 0 0 1 .2-2.535c.64-1.437 1.95-2.04 2.956-2.04v10.914Zm4.767-13.009L46.386-2.956l-6.677 8.634 36.206 28.001 6.677-8.633ZM46.372-2.966c-3.606-2.77-8.846-2.77-12.453 0l6.65 8.654c-.233.179-.395.182-.424.182-.028 0-.19-.003-.422-.182l6.649-8.654Zm-12.467.01L-2.3 25.046l6.677 8.633L40.582 5.678l-6.677-8.634Zm-36.163 27.97c-2.787 2.111-3.57 5.637-2.29 8.569 1.217 2.787 3.994 4.472 7.014 4.472V27.141c1.029 0 2.355.626 2.987 2.074.307.702.423 1.574.194 2.472a3.687 3.687 0 0 1-1.314 2.025l-6.591-8.699Zm4.724 13.041H9.83V27.141H2.466v10.914Zm1.906-5.457V58.63h10.914V32.6H4.372Zm0 26.031c0 5.81 5.202 9.176 9.788 9.176V56.89c.074 0 .263.024.496.224.242.208.63.722.63 1.514H4.372Zm9.788 9.176h12.993V56.89H14.16v10.914Zm12.993 0h5.461V56.89h-1.131v10.914h1.131V56.89h-5.462v10.914Z" fill="url(#paint0_linear_2054_85)" mask="url(#path-1-inside-1_2054_85)"/>
            <path d="m34.613 29.695 1.583-6.793-5.31-4.569 7.015-.604 2.728-6.406 2.728 6.406 7.015.604-5.31 4.57 1.583 6.792-6.016-3.602-6.016 3.602Z" fill="#EC1D25"/>
            <path d="M70.462 31.937h-.248v26.279c0 1.874-1.801 3.47-4.083 3.47H14.16c-2.282 0-4.083-1.596-4.083-3.47V31.937H2.466c-.904 0-1.536-.477-1.786-1.05-.248-.567-.136-1.252.507-1.74h.002L37.395 1.144c1.557-1.196 3.944-1.196 5.5 0h.001l36.206 28.001.005.004c.662.488.772 1.17.521 1.735-.255.574-.898 1.052-1.803 1.052h-7.363Z" stroke="#fff" stroke-width=".496"/>
            <g clip-path="url(#clip0_2054_85)">
                <path transform="translate(12.57 34.736)" fill="url(#paint1_linear_2054_85)" d="M0 0h54.148v25.542H0z"/>
                <path d="M23.71 43.61h-2.402l-.33 1.127h-2.155l2.564-6.822h2.299l2.564 6.822h-2.206l-.335-1.127Zm-.443-1.475-.754-2.452-.749 2.452h1.503Zm7.871-4.22h2.103v4.067c0 .403-.063.785-.19 1.145a2.47 2.47 0 0 1-.591.94 2.35 2.35 0 0 1-.843.563c-.41.151-.9.227-1.475.227a9.34 9.34 0 0 1-1.088-.07c-.391-.046-.719-.137-.982-.274a2.528 2.528 0 0 1-.726-.59 2.176 2.176 0 0 1-.447-.787c-.13-.434-.196-.82-.196-1.154v-4.067h2.104v4.165c0 .372.102.663.307.874.208.208.495.312.86.312.364 0 .648-.102.852-.307.208-.208.312-.501.312-.88v-4.164Zm3.227 4.565 2.006-.126c.043.326.131.574.265.745.217.276.527.414.93.414.301 0 .533-.07.694-.21.164-.142.247-.307.247-.493 0-.177-.078-.335-.233-.475-.155-.14-.515-.271-1.08-.395-.924-.208-1.583-.484-1.977-.828a1.666 1.666 0 0 1-.596-1.317c0-.35.1-.681.302-.991.205-.314.51-.559.917-.736.41-.18.97-.27 1.68-.27.872 0 1.536.163 1.992.49.459.322.732.837.819 1.544l-1.987.116c-.053-.307-.165-.53-.335-.67-.168-.14-.4-.21-.698-.21-.245 0-.43.053-.554.159a.471.471 0 0 0-.186.377c0 .108.05.206.153.293.1.09.335.174.708.251.921.199 1.58.4 1.977.605.4.202.69.453.87.754.183.301.275.638.275 1.01 0 .437-.121.84-.363 1.21-.242.369-.58.65-1.014.842-.435.19-.982.284-1.643.284-1.16 0-1.964-.224-2.41-.67-.447-.447-.7-1.015-.759-1.703Zm6.87-4.565h6.408v1.684h-2.15v5.138h-2.108v-5.138h-2.15v-1.684Zm7.546 0h2.112v6.822h-2.112v-6.822Zm3.739 0h1.968l2.569 3.774v-3.774h1.986v6.822h-1.986l-2.555-3.746v3.745H52.52v-6.821ZM14.475 52.066c0-1.114.31-1.98.93-2.601.62-.62 1.485-.93 2.592-.93 1.136 0 2.01.305 2.625.916.614.608.92 1.46.92 2.56 0 .796-.134 1.45-.404 1.963a2.869 2.869 0 0 1-1.163 1.191c-.506.282-1.137.423-1.894.423-.77 0-1.407-.122-1.913-.367-.502-.245-.91-.633-1.223-1.163-.314-.531-.47-1.195-.47-1.992Zm2.107.01c0 .688.128 1.183.382 1.484.258.3.607.451 1.047.451.453 0 .803-.147 1.052-.442.248-.295.372-.824.372-1.587 0-.642-.13-1.11-.391-1.405-.257-.298-.608-.447-1.052-.447-.425 0-.766.15-1.023.451-.258.301-.387.8-.387 1.494Zm6.468-3.426h3.504c.763 0 1.334.182 1.713.545.381.363.572.88.572 1.55 0 .688-.208 1.226-.624 1.614-.412.388-1.044.582-1.894.582h-1.154v2.531H23.05V48.65Zm2.117 2.909h.517c.406 0 .692-.07.856-.21a.69.69 0 0 0 .247-.544.758.758 0 0 0-.214-.545c-.143-.148-.411-.223-.805-.223h-.6v1.522Zm4.681-2.909h6.408v1.685h-2.15v5.137h-2.108v-5.137h-2.15V48.65Zm7.831 0h2.113v6.822h-2.113V48.65Zm3.746 3.416c0-1.114.31-1.98.93-2.601.621-.62 1.485-.93 2.592-.93 1.136 0 2.01.305 2.625.916.614.608.921 1.46.921 2.56 0 .796-.135 1.45-.405 1.963a2.87 2.87 0 0 1-1.163 1.191c-.506.282-1.137.423-1.894.423-.77 0-1.407-.122-1.912-.367-.503-.245-.91-.633-1.224-1.163-.314-.531-.47-1.195-.47-1.992Zm2.108.01c0 .688.127 1.183.381 1.484.258.3.607.451 1.047.451.453 0 .804-.147 1.052-.442.248-.295.372-.824.372-1.587 0-.642-.13-1.11-.39-1.405-.258-.298-.609-.447-1.052-.447-.425 0-.767.15-1.024.451-.257.301-.386.8-.386 1.494Zm6.49-3.426h1.97l2.568 3.774V48.65h1.987v6.822H54.56l-2.555-3.746v3.746h-1.982V48.65Zm7.939 4.565 2.005-.125c.044.325.132.573.266.744.217.276.527.414.93.414.301 0 .532-.07.694-.21.164-.142.246-.306.246-.492 0-.177-.077-.335-.232-.475-.155-.14-.515-.271-1.08-.395-.924-.208-1.583-.485-1.977-.829a1.666 1.666 0 0 1-.596-1.317c0-.35.1-.68.302-.99.205-.314.51-.56.917-.736.41-.18.97-.27 1.68-.27.872 0 1.535.163 1.992.489.459.322.732.837.818 1.544l-1.986.117c-.053-.307-.165-.53-.336-.67-.167-.14-.4-.21-.697-.21-.246 0-.43.053-.554.159a.471.471 0 0 0-.186.377c0 .108.05.206.153.293.1.09.335.173.707.251.922.199 1.581.4 1.978.605.4.202.69.453.87.754.183.3.275.637.275 1.01 0 .437-.121.84-.363 1.21-.242.368-.58.65-1.015.842-.434.189-.981.283-1.642.283-1.16 0-1.964-.223-2.41-.67-.447-.446-.7-1.014-.76-1.703Z" fill="#fff"/>
            </g>
            <defs>
                <linearGradient id="paint0_linear_2054_85" x1="21.254" y1="31.671" x2="66.226" y2="34.439" gradientUnits="userSpaceOnUse">
                    <stop stop-color="#251D6F"/>
                    <stop offset="1" stop-color="#AF1D3C"/>
                </linearGradient>
                <linearGradient id="paint1_linear_2054_85" x1="0" y1="12.771" x2="74.975" y2="12.865" gradientUnits="userSpaceOnUse">
                    <stop stop-color="#211D71"/>
                    <stop offset="1" stop-color="#EC1D25"/>
                </linearGradient>
                <clipPath id="clip0_2054_85">
                    <path fill="#fff" d="M12.57 34.736h54.148V60.28H12.57z"/>
                </clipPath>
            </defs>
        </symbol>
        <symbol id="icon-chevron-left" viewBox="0 0 20 20">
            <path d="M12.452 4.516c.446.436.481 1.043 0 1.576L8.705 10l3.747 3.908c.481.533.446 1.141 0 1.574-.445.436-1.197.408-1.615 0-.418-.406-4.502-4.695-4.502-4.695a1.095 1.095 0 0 1 0-1.576s4.084-4.287 4.502-4.695 1.17-.436 1.615 0z"/>
        </symbol>
        <symbol id="icon-chevron-right" viewBox="0 0 20 20">
            <path d="M9.163 4.516c.418.408 4.502 4.695 4.502 4.695a1.095 1.095 0 0 1 0 1.576s-4.084 4.289-4.502 4.695c-.418.408-1.17.436-1.615 0-.446-.434-.481-1.041 0-1.574L11.295 10 7.548 6.092c-.481-.533-.446-1.141 0-1.576s1.197-.409 1.615 0z"/>
        </symbol>
        <symbol id="icon-chat" viewBox="0 0 20 20">
            <path d="M5.8 12.2V6H2C.9 6 0 6.9 0 8v6c0 1.1.9 2 2 2h1v3l3-3h5c1.1 0 2-.9 2-2v-1.82a.943.943 0 0 1-.2.021l-7-.001zM18 1H9c-1.1 0-2 .9-2 2v8h7l3 3v-3h1c1.1 0 2-.899 2-2V3c0-1.1-.9-2-2-2z"/>
        </symbol>
        <symbol id="icon-magnifying-glass" viewBox="0 0 20 20">
            <path d="m17.545 15.467-3.779-3.779a6.15 6.15 0 0 0 .898-3.21c0-3.417-2.961-6.377-6.378-6.377S2.1 4.87 2.1 8.287c0 3.416 2.961 6.377 6.377 6.377a6.15 6.15 0 0 0 3.115-.844l3.799 3.801a.953.953 0 0 0 1.346 0l.943-.943c.371-.371.236-.84-.135-1.211zM4.004 8.287c0-2.366 1.917-4.283 4.282-4.283s4.474 2.107 4.474 4.474c0 2.365-1.918 4.283-4.283 4.283s-4.473-2.109-4.473-4.474z"/>
        </symbol>
        <symbol id="icon-chevron-down" viewBox="0 0 20 20">
            <path d="M4.516 7.548c.436-.446 1.043-.481 1.576 0L10 11.295l3.908-3.747c.533-.481 1.141-.446 1.574 0 .436.445.408 1.197 0 1.615-.406.418-4.695 4.502-4.695 4.502a1.095 1.095 0 0 1-1.576 0S4.924 9.581 4.516 9.163s-.436-1.17 0-1.615z"/>
        </symbol>
        <symbol id="icon-chevron-up" viewBox="0 0 20 20">
            <path d="M15.484 12.452c-.436.446-1.043.481-1.576 0L10 8.705l-3.908 3.747c-.533.481-1.141.446-1.574 0-.436-.445-.408-1.197 0-1.615.406-.418 4.695-4.502 4.695-4.502a1.095 1.095 0 0 1 1.576 0s4.287 4.084 4.695 4.502.436 1.17 0 1.615z"/>
        </symbol>
        <symbol id="icon-user" viewBox="0 0 32 32">
            <path d="M18 22.082v-1.649c2.203-1.241 4-4.337 4-7.432 0-4.971 0-9-6-9s-6 4.029-6 9c0 3.096 1.797 6.191 4 7.432v1.649C7.216 22.637 2 25.97 2 30h28c0-4.03-5.216-7.364-12-7.918z"/>
        </symbol>
        <symbol id="icon-share" viewBox="0 0 20 20">
            <path d="M15 13.442c-.633 0-1.204.246-1.637.642l-5.938-3.463c.046-.188.075-.384.075-.584s-.029-.395-.075-.583L13.3 6.025A2.48 2.48 0 0 0 15 6.7c1.379 0 2.5-1.121 2.5-2.5S16.379 1.7 15 1.7s-2.5 1.121-2.5 2.5c0 .2.029.396.075.583L6.7 8.212A2.485 2.485 0 0 0 5 7.537c-1.379 0-2.5 1.121-2.5 2.5s1.121 2.5 2.5 2.5a2.48 2.48 0 0 0 1.7-.675l5.938 3.463a2.339 2.339 0 0 0-.067.546A2.428 2.428 0 1 0 15 13.442z"/>
        </symbol>
        <symbol id="icon-menu" viewBox="0 0 20 20">
            <path d="M16.4 9H3.6c-.552 0-.6.447-.6 1s.048 1 .6 1h12.8c.552 0 .6-.447.6-1s-.048-1-.6-1zm0 4H3.6c-.552 0-.6.447-.6 1s.048 1 .6 1h12.8c.552 0 .6-.447.6-1s-.048-1-.6-1zM3.6 7h12.8c.552 0 .6-.447.6-1s-.048-1-.6-1H3.6c-.552 0-.6.447-.6 1s.048 1 .6 1z"/>
        </symbol>
        <symbol id="icon-cross" viewBox="0 0 20 20">
            <path d="M14.348 14.849a1.2 1.2 0 0 1-1.697 0L10 11.819l-2.651 3.029a1.2 1.2 0 1 1-1.697-1.697l2.758-3.15-2.759-3.152a1.2 1.2 0 1 1 1.697-1.697L10 8.183l2.651-3.031a1.2 1.2 0 1 1 1.697 1.697l-2.758 3.152 2.758 3.15a1.2 1.2 0 0 1 0 1.698z"/>
        </symbol>
        <symbol id="icon-plus" viewBox="0 0 24 24">
            <path d="M18.984 12.984h-6v6h-1.969v-6h-6v-1.969h6v-6h1.969v6h6v1.969z"></path>
        </symbol>
        <symbol id="icon-pinterest" viewBox="0 0 32 32">
            <path fill="#bd081c" style="fill:var(--color1, #bd081c)" d="M16.023 0C7.195 0 .039 7.156.039 15.983c0 6.772 4.211 12.556 10.157 14.883-.14-1.265-.265-3.204.055-4.585.292-1.249 1.875-7.943 1.875-7.943s-.479-.96-.479-2.375c0-2.217 1.289-3.881 2.891-3.881 1.365 0 2.024 1.025 2.024 2.251 0 1.372-.871 3.423-1.323 5.323-.38 1.591.8 2.887 2.367 2.887 2.837 0 5.024-2.993 5.024-7.316 0-3.815-2.751-6.492-6.677-6.492-4.547 0-7.212 3.416-7.212 6.932 0 1.377.525 2.857 1.185 3.655.132.16.149.3.113.46-.12.5-.391 1.599-.445 1.817-.071.3-.229.361-.535.22-1.993-.92-3.244-3.837-3.244-6.195 0-5.035 3.664-9.669 10.56-9.669 5.544 0 9.856 3.956 9.856 9.231 0 5.513-3.476 9.949-8.311 9.949-1.619 0-3.139-.839-3.677-1.839l-.999 3.797c-.359 1.393-1.339 3.136-1.997 4.195 1.497.46 3.075.713 4.733.713 8.809 0 15.98-7.153 15.98-15.983C31.96 7.187 24.789.035 15.98.035z"/>
        </symbol>
        <symbol id="icon-linkedin" viewBox="0 0 32 32">
            <path fill="#0077b5" style="fill:var(--color2, #0077b5)" d="M27.263 27.269h-4.739v-7.425c0-1.771-.036-4.049-2.469-4.049-2.471 0-2.848 1.927-2.848 3.919v7.556h-4.739V12.001h4.552v2.081h.061c.636-1.2 2.183-2.467 4.493-2.467 4.801 0 5.689 3.16 5.689 7.273zM7.116 9.911a2.75 2.75 0 0 1-2.751-2.753 2.752 2.752 0 1 1 2.751 2.753zm2.376 17.358H4.74V12h4.752zM29.633 0H2.361C1.056 0 0 1.032 0 2.305v27.389c0 1.275 1.056 2.305 2.361 2.305h27.268c1.304 0 2.371-1.031 2.371-2.305V2.305C32 1.032 30.933 0 29.629 0z"/>
        </symbol>
        <symbol id="icon-reddit" viewBox="0 0 32 32">
            <path fill="#ff4500" style="fill:var(--color3, #ff4500)" d="M2.939 18.732c-.08.368-.121.747-.121 1.129 0 4.591 5.869 8.332 13.085 8.332 7.213 0 13.083-3.739 13.083-8.332a5.53 5.53 0 0 0-.109-1.079l-.02-.043a.609.609 0 0 1-.039-.22c-.403-1.567-1.489-2.988-3.061-4.137a.566.566 0 0 1-.168-.093c-.035-.027-.06-.056-.089-.085-2.389-1.645-5.808-2.677-9.595-2.677-3.753 0-7.139 1.012-9.528 2.628a.531.531 0 0 1-.238.165C4.531 15.469 3.416 16.903 3 18.484a.619.619 0 0 1-.049.228zm13.03 7.255c-2.392 0-4.076-.519-5.151-1.596a.6.6 0 0 1 0-.843.626.626 0 0 1 .847 0c.84.839 2.247 1.257 4.304 1.257 2.056 0 3.455-.4 4.292-1.239.22-.219.6-.219.839 0 .22.24.22.62 0 .86-1.079 1.077-2.753 1.597-5.149 1.597zm-4.808-10.098a2.259 2.259 0 0 0-2.236 2.236c0 1.213 1.017 2.2 2.236 2.2s2.201-.987 2.201-2.2c0-1.216-.985-2.236-2.201-2.236zm9.644 0a2.26 2.26 0 0 0-2.237 2.236c0 1.213 1.019 2.2 2.237 2.2s2.201-.987 2.201-2.2c0-1.216-.985-2.236-2.201-2.236zm6.064-2.126c1.383 1.111 2.4 2.428 2.919 3.872.6-.448.959-1.152.959-1.932a2.424 2.424 0 0 0-3.877-1.937zm-23.254-.479a2.426 2.426 0 0 0-1.564 4.276c.535-1.439 1.563-2.737 2.951-3.835a2.429 2.429 0 0 0-1.385-.439zm12.289 16.105c-7.875 0-14.279-4.273-14.279-9.523 0-.367.031-.725.091-1.079A3.63 3.63 0 0 1 0 15.702c0-1.995 1.636-3.617 3.633-3.617.899 0 1.737.328 2.396.909 2.475-1.588 5.809-2.588 9.483-2.656l2.416-7.365.539.127s.021 0 .021.003l5.631 1.324a2.999 2.999 0 0 1 2.753-1.813 2.983 2.983 0 0 1 2.975 2.979c0 1.643-1.337 2.979-2.975 2.979s-2.973-1.339-2.973-2.973l-5.135-1.216-1.956 5.969c3.533.14 6.729 1.139 9.125 2.695a3.549 3.549 0 0 1 2.444-.959 3.621 3.621 0 0 1 3.624 3.615c0 1.316-.72 2.515-1.837 3.153.039.34.079.659.079.999-.02 5.251-6.408 9.524-14.293 9.524zM26.809 3.807a1.786 1.786 0 1 0 0 3.571c.976 0 1.773-.8 1.773-1.779 0-.977-.797-1.776-1.796-1.776z"/>
        </symbol>
        <symbol id="icon-x" viewBox="0 0 32 32">
            <path d="M24.325 3h4.411L19.1 14.013 30.436 29H21.56l-6.952-9.089L6.653 29H2.24l10.307-11.78L1.672 3h9.101l6.284 8.308zm-1.548 23.36h2.444L9.445 5.501H6.822z"/>
        </symbol>
        <symbol id="icon-whatsapp" viewBox="0 0 32 32">
            <path fill="#25d366" style="fill:var(--color4, #25d366)" d="M23.331 19.176c-.401-.2-2.356-1.156-2.72-1.288-.364-.135-.631-.2-.897.2-.263.393-1.028 1.285-1.259 1.549-.233.26-.465.28-.861.1-.4-.2-1.684-.62-3.204-1.98-1.184-1.06-1.979-2.36-2.213-2.76-.232-.4-.025-.62.173-.82.181-.18.401-.46.601-.697.195-.241.259-.401.396-.661.133-.28.065-.5-.033-.699-.1-.2-.896-2.16-1.229-2.941-.32-.779-.649-.68-.896-.68-.229-.02-.495-.02-.761-.02s-.697.099-1.063.479c-.364.4-1.393 1.36-1.393 3.3s1.427 3.82 1.625 4.1c.199.26 2.807 4.26 6.8 5.98.952.4 1.693.64 2.272.839.952.303 1.82.26 2.507.161.765-.121 2.356-.961 2.688-1.901.34-.94.34-1.72.24-1.9-.099-.18-.36-.28-.76-.46zM16.081 29h-.021c-2.36 0-4.699-.64-6.74-1.84l-.48-.285-5 1.3 1.34-4.86-.319-.5a13.156 13.156 0 0 1-2.021-7.013c0-7.26 5.94-13.18 13.256-13.18 3.539 0 6.86 1.38 9.361 3.88 2.5 2.479 3.879 5.8 3.879 9.32-.005 7.259-5.947 13.18-13.247 13.18zM27.36 4.599C24.32 1.66 20.32 0 16.06 0 7.284 0 .139 7.112.135 15.857c0 2.795.732 5.52 2.127 7.927L.001 32l8.447-2.203a16.087 16.087 0 0 0 7.613 1.929h.008c8.78 0 15.928-7.115 15.932-15.861 0-4.235-1.653-8.22-4.66-11.215z"/>
        </symbol>
        <symbol id="icon-facebook" viewBox="0 0 32 32">
            <path fill="#1877f2" style="fill:var(--color5, #1877f2)" d="M31.997 15.999C31.997 7.163 24.834 0 15.998 0S-.001 7.163-.001 15.999c0 7.985 5.851 14.604 13.499 15.804v-11.18H9.436v-4.625h4.062v-3.525c0-4.01 2.389-6.225 6.043-6.225 1.75 0 3.581.313 3.581.313v3.937h-2.017c-1.987 0-2.607 1.233-2.607 2.498v3.001h4.437l-.709 4.625h-3.728v11.18c7.649-1.2 13.499-7.819 13.499-15.804z"/>
        </symbol>
        <symbol id="icon-gmail" viewBox="0 0 32 32">
            <path fill="#d14836" style="fill:var(--color6, #d14836)" d="M32 6v20c0 1.133-.867 2-2 2h-2V9.849l-12 8.617L4 9.849V28H2c-1.135 0-2-.867-2-2V6c0-.567.216-1.067.575-1.424A1.98 1.98 0 0 1 2 4h.667L16 13.667 29.333 4H30c.567 0 1.067.216 1.425.576.36.357.575.857.575 1.424z"/>
        </symbol>
        <symbol id="icon-link" viewBox="0 0 32 32">
            <path d="M13.757 19.868a1.62 1.62 0 0 1-1.149-.476c-2.973-2.973-2.973-7.81 0-10.783l6-6C20.048 1.169 21.963.376 24 .376s3.951.793 5.392 2.233c2.973 2.973 2.973 7.81 0 10.783l-2.743 2.743a1.624 1.624 0 1 1-2.298-2.298l2.743-2.743a4.38 4.38 0 0 0 0-6.187c-.826-.826-1.925-1.281-3.094-1.281s-2.267.455-3.094 1.281l-6 6a4.38 4.38 0 0 0 0 6.187 1.624 1.624 0 0 1-1.149 2.774z"/>
            <path d="M8 31.625a7.575 7.575 0 0 1-5.392-2.233c-2.973-2.973-2.973-7.81 0-10.783l2.743-2.743a1.624 1.624 0 1 1 2.298 2.298l-2.743 2.743a4.38 4.38 0 0 0 0 6.187c.826.826 1.925 1.281 3.094 1.281s2.267-.455 3.094-1.281l6-6a4.38 4.38 0 0 0 0-6.187 1.624 1.624 0 1 1 2.298-2.298c2.973 2.973 2.973 7.81 0 10.783l-6 6A7.575 7.575 0 0 1 8 31.625z"/>
            <symbol id="icon-google" viewBox="0 0 32 32">
                <path fill="#4285f4" style="fill:var(--color1, #4285f4)" d="M16.32 13.713V19.2h9.075c-.367 2.353-2.741 6.899-9.075 6.899-5.46 0-9.919-4.519-9.919-10.099s4.46-10.099 9.919-10.099c3.107 0 5.188 1.319 6.38 2.465l4.339-4.184c-2.787-2.601-6.4-4.183-10.719-4.183-8.847 0-16 7.153-16 16s7.153 16 16 16c9.235 0 15.36-6.492 15.36-15.635 0-1.051-.113-1.853-.252-2.652z"/>
            </symbol>
        </symbol>
        <symbol id="icon-tools" viewBox="0 0 20 20">
            <path d="M3.135 6.89c.933-.725 1.707-.225 2.74.971.116.135.272-.023.361-.1.088-.078 1.451-1.305 1.518-1.361.066-.059.146-.169.041-.292a36.238 36.238 0 0 1-.743-.951c-1.808-2.365 4.946-3.969 3.909-3.994-.528-.014-2.646-.039-2.963-.004-1.283.135-2.894 1.334-3.705 1.893-1.061.726-1.457 1.152-1.522 1.211-.3.262-.048.867-.592 1.344-.575.503-.934.122-1.267.414-.165.146-.627.492-.759.607-.133.117-.157.314-.021.471 0 0 1.264 1.396 1.37 1.52.105.122.391.228.567.071.177-.156.632-.553.708-.623.078-.066-.05-.861.358-1.177zm5.708.517c-.12-.139-.269-.143-.397-.029L7.012 8.63a.289.289 0 0 0-.027.4l8.294 9.439c.194.223.53.246.751.053l.97-.813a.54.54 0 0 0 .052-.758L8.843 7.407zM19.902 3.39c-.074-.494-.33-.391-.463-.182-.133.211-.721 1.102-.963 1.506-.24.4-.832 1.191-1.934.41-1.148-.811-.749-1.377-.549-1.758.201-.383.818-1.457.907-1.59.089-.135-.015-.527-.371-.363s-2.523 1.025-2.823 2.26c-.307 1.256.257 2.379-.85 3.494l-1.343 1.4 1.349 1.566 1.654-1.57c.394-.396 1.236-.781 1.998-.607 1.633.369 2.524-.244 3.061-1.258.482-.906.402-2.814.327-3.308zM2.739 17.053a.538.538 0 0 0 0 .758l.951.93c.208.209.538.121.746-.088l4.907-4.824-1.503-1.714-5.101 4.938z"/>
        </symbol>
        <symbol id="icon-bell" viewBox="0 0 32 32">
            <path d="M32.047 25c0-9-8-7-8-14 0-.58-.056-1.076-.158-1.498-.526-3.532-2.88-6.366-5.93-7.23.027-.123.041-.251.041-.382 0-1.04-.9-1.891-2-1.891S14 .85 14 1.89c0 .131.014.258.041.382-3.421.969-5.966 4.416-6.039 8.545L8 11c0 7-8 5-8 14 0 2.382 5.331 4.375 12.468 4.878a3.998 3.998 0 0 0 7.064 0C26.669 29.375 32 27.383 32 25l-.001-.021.048.021zm-6.227 1.691c-1.695.452-3.692.777-5.837.958a4 4 0 0 0-7.968 0c-2.144-.18-4.142-.506-5.837-.958-2.332-.622-3.447-1.318-3.855-1.691.408-.372 1.523-1.068 3.855-1.691 2.712-.724 6.199-1.122 9.82-1.122s7.109.398 9.82 1.122c2.332.622 3.447 1.318 3.855 1.691-.408.372-1.523 1.068-3.855 1.691z"/>
        </symbol>
        <symbol id="icon-cog" viewBox="0 0 32 32">
            <path d="M29.181 19.07c-1.679-2.908-.669-6.634 2.255-8.328l-3.145-5.447a6.022 6.022 0 0 1-3.058.829c-3.361 0-6.085-2.742-6.085-6.125h-6.289a6.023 6.023 0 0 1-.811 3.07C10.369 5.977 6.637 6.966 3.709 5.28L.565 10.727a6.023 6.023 0 0 1 2.246 2.234c1.676 2.903.672 6.623-2.241 8.319l3.145 5.447a6.022 6.022 0 0 1 3.044-.82c3.35 0 6.067 2.725 6.084 6.092h6.289a6.032 6.032 0 0 1 .811-3.038c1.676-2.903 5.399-3.894 8.325-2.219l3.145-5.447a6.032 6.032 0 0 1-2.232-2.226zM16 22.479A6.48 6.48 0 1 1 16 9.52a6.48 6.48 0 0 1 0 12.959z"/>
        </symbol>
        <symbol id="icon-exit" viewBox="0 0 32 32">
            <path d="M24 20v-4H14v-4h10V8l6 6zm-2-2v8H12v6L0 26V0h22v10h-2V2H4l8 4v18h8v-6z"/>
        </symbol>
        <symbol id="icon-area-graph" viewBox="0 0 20 20">
            <path d="M20 2v16H.32c-.318 0-.416-.209-.216-.465l4.469-5.748a.526.526 0 0 1 .789-.062l1.419 1.334a.473.473 0 0 0 .747-.096l3.047-4.74a.466.466 0 0 1 .741-.09l2.171 2.096c.232.225.559.18.724-.1l5.133-7.785C19.51 2.062 19.75 2 20 2z"/>
        </symbol>
        <symbol id="icon-phone" viewBox="0 0 32 32">
            <path d="M22 20c-2 2-2 4-4 4s-4-2-6-4-4-4-4-6 2-2 4-4-4-8-6-8-6 6-6 6c0 4 4.109 12.109 8 16s12 8 16 8c0 0 6-4 6-6s-6-8-8-6z"/>
        </symbol>
        <symbol id="icon-home-search" viewBox="0 0 78 79" fill="none" xmlns="http://www.w3.org/2000/svg">
            <path d="M68.809 38.285h-.022c-.296 0-.58-.112-.796-.311l-12.252-11.36a1.172 1.172 0 0 1 1.593-1.72l12.126 11.242a1.172 1.172 0 0 1-.65 2.15ZM45.256 16.473a1.17 1.17 0 0 1-.796-.312c-3.506-3.249-5.97-5.535-5.97-5.535a1.173 1.173 0 0 1 .524-2l.22-.053a1.174 1.174 0 0 1 1.41.853c.917.85 2.896 2.686 5.41 5.015a1.172 1.172 0 0 1-.798 2.032ZM62.93 69.518a1.173 1.173 0 0 1-1.005-1.776V37.105a1.171 1.171 0 1 1 2.343 0v31.229c0 .611-.47 1.119-1.079 1.168l-.167.013c-.03.001-.061.003-.092.003Z" fill="#4A60A1"/>
            <path d="M57.66 25.46a1.17 1.17 0 0 1-1.172-1.17l-.021-10.335a1.173 1.173 0 0 1 .352-2.296l.84.014a1.17 1.17 0 0 1 1.15 1.17l.023 11.44a1.173 1.173 0 0 1-1.17 1.176h-.002Z" fill="#4A60A1"/>
            <path d="M56.182 26.214a1.423 1.423 0 0 0 2.845 0V12.698c0-.786-.636-1.422-1.421-1.422h-8.551c-.786 0-1.422.636-1.422 1.422v5.542a1.421 1.421 0 1 0 2.844 0v-4.12h5.705v12.094Z" fill="#4A60A1" stroke="#4A60A1" stroke-width=".5"/>
            <path d="M8.232 36.064a1.423 1.423 0 0 0 1.919 2.1l28.955-26.467 28.54 26.46a1.422 1.422 0 0 0 1.932-2.087h.001L40.08 8.723a1.42 1.42 0 0 0-1.926-.007L8.232 36.064Z" fill="#4A60A1" stroke="#4A60A1" stroke-width=".5"/>
            <path d="M14.807 69.765h48.3l1.17-1.424h.25V33.784a1.421 1.421 0 1 0-2.843 0V66.92H16.229V32.731a1.421 1.421 0 1 0-2.843 0v35.612c0 .785.636 1.422 1.421 1.422Z" fill="#4A60A1" stroke="#4A60A1" stroke-width=".5"/>
            <path d="M37.875 51.78a7.875 7.875 0 1 0 0-15.75 7.875 7.875 0 0 0 0 15.75Zm5.569-2.307L48 54.03" stroke="#1E2640" stroke-width="2" stroke-linecap="round" stroke-linejoin="round"/>
        </symbol>
        <symbol id="icon-home-key" viewBox="0 0 79 79" fill="none" xmlns="http://www.w3.org/2000/svg">
            <path d="M68.84 38.285h-.022c-.295 0-.58-.112-.796-.311l-12.251-11.36a1.172 1.172 0 0 1 1.592-1.72L69.49 36.137a1.172 1.172 0 0 1-.65 2.15ZM45.288 16.473a1.17 1.17 0 0 1-.796-.312c-3.507-3.249-5.97-5.535-5.97-5.535a1.173 1.173 0 0 1 .524-2l.22-.053a1.174 1.174 0 0 1 1.409.853l5.411 5.015a1.173 1.173 0 0 1-.798 2.032Zm17.673 53.045a1.173 1.173 0 0 1-1.005-1.776V37.105a1.171 1.171 0 1 1 2.344 0v31.229c0 .611-.47 1.119-1.08 1.168l-.166.013-.093.003Z" fill="#4A60A1"/>
            <path d="M57.692 25.46a1.17 1.17 0 0 1-1.172-1.17l-.022-10.335a1.173 1.173 0 0 1 .352-2.296l.84.014a1.17 1.17 0 0 1 1.15 1.17l.023 11.44a1.173 1.173 0 0 1-1.17 1.176h-.001Z" fill="#4A60A1"/>
            <path d="M56.214 26.214a1.423 1.423 0 0 0 2.845 0V12.698c0-.786-.636-1.422-1.422-1.422h-8.55c-.786 0-1.422.636-1.422 1.422v5.542a1.421 1.421 0 1 0 2.843 0v-4.12h5.706v12.094Z" fill="#4A60A1" stroke="#4A60A1" stroke-width=".5"/>
            <path d="M8.263 36.064a1.423 1.423 0 0 0 1.92 2.1l28.954-26.467 28.541 26.46a1.422 1.422 0 0 0 1.932-2.087L40.11 8.723a1.42 1.42 0 0 0-1.926-.007L8.264 36.064Z" fill="#4A60A1" stroke="#4A60A1" stroke-width=".5"/>
            <path d="M14.839 69.765h48.3l1.17-1.424h.25V33.784a1.421 1.421 0 1 0-2.844 0V66.92H16.261V32.731a1.421 1.421 0 1 0-2.844 0v35.612c0 .785.636 1.422 1.422 1.422Z" fill="#4A60A1" stroke="#4A60A1" stroke-width=".5"/>
            <path d="M35.769 43.542a6.75 6.75 0 1 1 6.263 4.238 6.59 6.59 0 0 1-2.513-.488v0l-1.237 1.237h-2.25v2.25h-2.25v2.25h-3.75v-3.75l5.737-5.737Z" stroke="#E90808" stroke-width="1.5" stroke-linecap="round" stroke-linejoin="round"/>
            <path d="M43.907 40.28a1.125 1.125 0 1 0 0-2.25 1.125 1.125 0 0 0 0 2.25Z" fill="#E90808"/>
        </symbol>
        <symbol id="icon-home-bag" viewBox="0 0 79 79" fill="none" xmlns="http://www.w3.org/2000/svg">
            <path d="M68.872 38.285h-.022c-.296 0-.58-.112-.796-.311l-12.252-11.36a1.172 1.172 0 0 1 1.593-1.72L69.52 36.137a1.172 1.172 0 0 1-.65 2.15ZM45.319 16.473c-.284 0-.571-.104-.796-.312-3.506-3.249-5.97-5.535-5.97-5.535a1.173 1.173 0 0 1 .525-2l.22-.053a1.174 1.174 0 0 1 1.408.853c.918.85 2.897 2.686 5.412 5.015a1.172 1.172 0 0 1-.799 2.032Zm17.674 53.045a1.173 1.173 0 0 1-1.005-1.776V37.105a1.171 1.171 0 1 1 2.343 0v31.229c0 .611-.47 1.119-1.079 1.168l-.167.013-.092.003Z" fill="#4A60A1"/>
            <path d="M57.723 25.46a1.17 1.17 0 0 1-1.172-1.17l-.021-10.335a1.173 1.173 0 0 1 .352-2.296l.84.014a1.17 1.17 0 0 1 1.15 1.17l.023 11.44a1.173 1.173 0 0 1-1.17 1.176h-.002Z" fill="#4A60A1"/>
            <path d="M56.245 26.214a1.423 1.423 0 0 0 2.845 0V12.698c0-.786-.636-1.422-1.421-1.422h-8.551c-.786 0-1.422.636-1.422 1.422v5.542a1.421 1.421 0 1 0 2.844 0v-4.12h5.705v12.094Z" fill="#4A60A1" stroke="#4A60A1" stroke-width=".5"/>
            <path d="M8.295 36.064a1.423 1.423 0 0 0 1.919 2.1l28.955-26.467 28.54 26.46a1.422 1.422 0 0 0 1.932-2.087h.001l-29.5-27.348a1.42 1.42 0 0 0-1.926-.007L8.295 36.064Z" fill="#4A60A1" stroke="#4A60A1" stroke-width=".5"/>
            <path d="M14.87 69.765h48.3l1.17-1.424h.25V33.784a1.421 1.421 0 1 0-2.843 0V66.92H16.292V32.731a1.421 1.421 0 1 0-2.844 0v35.612c0 .785.637 1.422 1.422 1.422Z" fill="#4A60A1" stroke="#4A60A1" stroke-width=".5"/>
            <path d="M50.75 40.68H27.376c-.586 0-1.062.475-1.062 1.062v17c0 .587.476 1.062 1.063 1.062H50.75c.586 0 1.062-.475 1.062-1.062v-17c0-.587-.476-1.063-1.063-1.063Z" stroke="#1E2640" stroke-width="2.5" stroke-linecap="round" stroke-linejoin="round"/>
            <path d="M44.376 40.68v-2.126a2.125 2.125 0 0 0-2.125-2.125h-6.375a2.125 2.125 0 0 0-2.125 2.125v2.125m18.062 7.212a25.406 25.406 0 0 1-12.75 3.413 25.273 25.273 0 0 1-12.75-3.413m11.157-.837h3.187" stroke="#1E2640" stroke-width="2.5" stroke-linecap="round" stroke-linejoin="round"/>
        </symbol>
    </defs>
</svg>
